<svg xmlns="http://www.w3.org/2000/svg" viewBox="0 0 125 134.84"><title>Artboard 21 copy 3</title><g id="person_15" data-name="person 15"><path id="neck-2" data-name="neck" d="M51.43,74.59S51.12,87,50.71,88.37,43,90.62,41.28,92.6s1,5.57,2.26,7c6,6.7,21.22,7.47,29.24,5.74,4.4-1,14.3-6.46,15.15-11.57.42-2.53-7-3.94-8.81-5.07s-2.6-14.33-2.6-14.33Z" fill="#fce7d4" stroke="#020202" stroke-miterlimit="10" stroke-width="0.75"/><path d="M2.81,142C4,135.15,7.1,117.78,7.9,113s.92-6.74,3.45-10.92,7.45-5.59,12-6.47c4.79-.94,6.85-2,11.65-2.72a36.58,36.58,0,0,0,8-2.63c1-.43.36,7.82,8,11.69a29.14,29.14,0,0,0,28.23-1.84c3.51-2.34,4.86-6.09,7.14-9.85,3.44.67,6.66,2.13,10,3.23,5.73,1.89,15.74,1.42,18.27,8.46,3,8.25,5.93,31.56,7.81,40.12Z" fill="#f44711" stroke="#020202" stroke-miterlimit="10" stroke-width="0.75"/><g id="hair-8" data-name="hair"><path d="M41.54,127a9.36,9.36,0,0,1-.75-3,12.29,12.29,0,0,1,.4-3.4,10.83,10.83,0,0,1-.64-2.93,4.5,4.5,0,0,1,.74-2.67,29.26,29.26,0,0,1-1-5.23c-.26-2.76.69-3.32.69-3.32a13.07,13.07,0,0,0-.45-2c-.41-1.47.65-5.2.65-5.2a51.85,51.85,0,0,1-1.46-5.89,9,9,0,0,1,.59-4.72A21.28,21.28,0,0,1,39.45,85a24.64,24.64,0,0,1,.44-6.78A37.46,37.46,0,0,1,39,73.72a17.91,17.91,0,0,1,0-4.51c.23-1.58.64-2.9.91-4.44.5-2.91-.72-5.77-.88-8-.32-4.37-.93-18.29-.93-18.29,8.29-3.93,19.58-8.83,19.58-8.83s-.2,6.47-5.87,16.52c-3,5.3-7.27,13.13-7.08,15.85a27.37,27.37,0,0,0,.81,5.75c.06.27.63,3.91.67,4a18.63,18.63,0,0,1,.93,3.91,27.15,27.15,0,0,1-.3,7.16,9.41,9.41,0,0,1,1,3.51,25.1,25.1,0,0,1-.26,6.34,28.33,28.33,0,0,1,1,4.66,14.76,14.76,0,0,1-.72,5.12,10.43,10.43,0,0,1,.16,4.43,16.73,16.73,0,0,1-1,4.18s.25,1,.53,2.71a3.83,3.83,0,0,1-.88,3s.49,1.73.67,2.63-1.27,3.81-1.27,3.81a9,9,0,0,0-1.42,3.49,6,6,0,0,1,.92,3.51,13.48,13.48,0,0,1-.24,3.29A4.35,4.35,0,0,1,43.84,136c-.93.76-2.88.8-3.93.76a19.25,19.25,0,0,0,.88-4.66A31.36,31.36,0,0,1,41.54,127Z" fill="#f7de48" stroke="#020202" stroke-miterlimit="10" stroke-width="0.75"/><path d="M46.28,71.81s-1.84,1.83-3.08,6.89" fill="none" stroke="#000" stroke-miterlimit="10" stroke-width="0.75"/><path d="M39.91,78.6c.1-.46,2.05,1.76,2.18,2,.95,1.44,1.53,3.09,2.39,4.58" fill="none" stroke="#000" stroke-miterlimit="10" stroke-width="0.75"/><path d="M46.91,82.88C46,84.2,45,85.11,44.35,86.59s-.62,3.55-1,5.11" fill="none" stroke="#000" stroke-miterlimit="10" stroke-width="0.75"/><path d="M41.48,90.71c1.62,2.1,3,3.94,3.11,6.68" fill="none" stroke="#000" stroke-miterlimit="10" stroke-width="0.75"/><path d="M47.51,93s-3.73,3.86-3.71,7.83" fill="none" stroke="#000" stroke-miterlimit="10" stroke-width="0.75"/><path d="M41.16,99.22a13.84,13.84,0,0,1,2.65,3.58,14.07,14.07,0,0,1,.84,2.55" fill="none" stroke="#000" stroke-miterlimit="10" stroke-width="0.75"/><path d="M47.88,102.51s-3,3.39-3.43,6.13" fill="none" stroke="#000" stroke-miterlimit="10" stroke-width="0.75"/><path d="M42.1,107.81s2.73,2.11,2.85,5.11" fill="none" stroke="#000" stroke-miterlimit="10" stroke-width="0.75"/><path d="M46.84,111.24s-3.32,2.83-3.78,4.88" fill="none" stroke="#000" stroke-miterlimit="10" stroke-width="0.75"/><path d="M41.29,114.92a15.5,15.5,0,0,1,2.49,4" fill="none" stroke="#000" stroke-miterlimit="10" stroke-width="0.75"/><path d="M46.65,116.82s-3.5,3.66-4.06,5.76" fill="none" stroke="#000" stroke-miterlimit="10" stroke-width="0.75"/><path d="M41.19,120.52a25.51,25.51,0,0,1,2.31,4" fill="none" stroke="#000" stroke-miterlimit="10" stroke-width="0.75"/><path d="M39.29,68.62s4.07,3.94,5.06,6.53" fill="#f7de48" stroke="#020202" stroke-miterlimit="10" stroke-width="0.75"/><polygon points="44.84 127.87 41.52 127.76 41.55 126.95 44.67 126.98 44.84 127.87" fill="#332e28" stroke="#000" stroke-miterlimit="10" stroke-width="0.75"/></g><path id="head-3" data-name="head" d="M63.1,28a28.36,28.36,0,0,0-10.49,1.55A10.3,10.3,0,0,0,47,33.61a13.18,13.18,0,0,0-1.34,3.84c-1.12,4.91-.78,9.78-1.15,15.12A6.26,6.26,0,0,0,43.2,50c-.69-.62-1.73.26-1.85,1.18-.26,2.14.59,4.14.94,6.23.32,1.88-1.34,5.34.91,6.41.24.11,1.27-.48,1.26-1,0,2.74,2.37,8.31,3.49,10.81,3.51,7.84,10.63,12.64,16.58,12.64,5.4,0,10.64-5.25,15.3-13.69,1.32-2.38,1.92-5.82,2.34-9a5,5,0,0,0,1.17.63c1.74.11,1.68-2.88,1.88-4.14.34-2.2.17-4.51,1-6.6.44-1,1.62-2.57.36-3.51a2.15,2.15,0,0,0-2.53,0c-.93.65-.91,1.62-1.23,2.6a53,53,0,0,0-2.08-13.69,12.47,12.47,0,0,0-1.63-4,14.42,14.42,0,0,0-5.85-5,19.83,19.83,0,0,0-5-1.55A46.54,46.54,0,0,0,63.1,28Z" fill="#fce7d4" stroke="#020202" stroke-miterlimit="10" stroke-width="0.75"/><g id="hair-9" data-name="hair"><path d="M89.67,126.38a9.3,9.3,0,0,0,.57-3.07,12,12,0,0,0-.6-3.37,10.78,10.78,0,0,0,.47-3,4.51,4.51,0,0,0-.9-2.61,28.8,28.8,0,0,0,.71-5.29c.1-2.77-.89-3.27-.89-3.27a14,14,0,0,1,.35-2c.32-1.49-1-5.16-1-5.16a52.13,52.13,0,0,0,1.11-6A9.11,9.11,0,0,0,88.66,88a22,22,0,0,0,.63-3.69,24.76,24.76,0,0,0-.84-6.74A40,40,0,0,0,89,73.09a36.41,36.41,0,0,0-.84-6.52,15.41,15.41,0,0,1-.7-5.64c.06-4.38-3.94-24.37-3.94-24.37-4.2-7.36-34.91-6.87-34.91-6.87S59.88,43.72,71,47.8C84.33,52.72,82.34,59.29,82.32,62s-.43,3.37-.82,5.69c0,.28.22,3.82.19,3.91a19.09,19.09,0,0,0-.69,4,27,27,0,0,0,.71,7.13,9.43,9.43,0,0,0-.77,3.57,25,25,0,0,0,.62,6.3,29.07,29.07,0,0,0-.68,4.71,14.81,14.81,0,0,0,1,5.07,10.53,10.53,0,0,0,.09,4.43,16.71,16.71,0,0,0,1.29,4.12s-.19,1-.37,2.73A3.85,3.85,0,0,0,84,116.56s-.39,1.76-.52,2.67S85,123,85,123a9.12,9.12,0,0,1,1.62,3.39c.14.75-1.33,2.42-1.26,3.53.12,2.16,4.29,6.33,6.45,6.36a36.85,36.85,0,0,1-1-4.77A30.84,30.84,0,0,0,89.67,126.38Z" fill="#f7de48" stroke="#020202" stroke-miterlimit="10" stroke-width="0.75"/><path d="M82.63,70.89s2,1.73,3.48,6.71" fill="none" stroke="#000" stroke-miterlimit="10" stroke-width="0.75"/><path d="M88.46,78c-.11-.4-1.6,1.64-1.69,1.82-.71,1.31-1.1,2.79-1.73,4.14" fill="none" stroke="#000" stroke-miterlimit="10" stroke-width="0.75"/><path d="M81.71,82.7c1,1.26,2.08,2.11,2.78,3.55s.83,3.5,1.34,5" fill="none" stroke="#000" stroke-miterlimit="10" stroke-width="0.75"/><path d="M88.78,87.77C87.29,90,86,91.87,86.07,94.61" fill="none" stroke="#000" stroke-miterlimit="10" stroke-width="0.75"/><path d="M81.71,92.84s4,3.63,4.17,7.59" fill="none" stroke="#000" stroke-miterlimit="10" stroke-width="0.75"/><path d="M88.42,98.67A11.25,11.25,0,0,0,85.29,105" fill="none" stroke="#000" stroke-miterlimit="10" stroke-width="0.75"/><path d="M81.91,102.35s3.18,3.21,3.78,5.92" fill="none" stroke="#000" stroke-miterlimit="10" stroke-width="0.75"/><path d="M88.77,106s-2.6,2.27-2.54,5.27" fill="none" stroke="#000" stroke-miterlimit="10" stroke-width="0.75"/><path d="M83.46,111s3.47,2.64,4.06,4.65" fill="none" stroke="#000" stroke-miterlimit="10" stroke-width="0.75"/><path d="M89.21,114.36A15.38,15.38,0,0,0,87,118.54" fill="none" stroke="#000" stroke-miterlimit="10" stroke-width="0.75"/><path d="M84,116.56s3.7,3.45,4.38,5.51" fill="none" stroke="#000" stroke-miterlimit="10" stroke-width="0.75"/><path d="M89.64,119.94A24.85,24.85,0,0,0,87.58,124" fill="none" stroke="#000" stroke-miterlimit="10" stroke-width="0.75"/><path d="M88.89,69.2s-2.8,4.1-3.37,6.73" fill="#f7de48" stroke="#020202" stroke-miterlimit="10" stroke-width="0.75"/><rect x="86.15" y="125.98" width="3.88" height="0.81" fill="#332e28" stroke="#000" stroke-miterlimit="10" stroke-width="0.75"/></g><path id="nose-4" data-name="nose" d="M63.78,58.44c-1.15,5.6-5.46,6.23-5.63,8.16-.25,3,4.28,2.88,6.57,1.8" fill="none" stroke="#020202" stroke-miterlimit="10" stroke-width="0.75"/><g id="Layer_108" data-name="Layer 108"><path d="M51,57.6a2.5,2.5,0,0,0,2.53,2.26c1.5.11,2.16-2.26,2.16-2.26" fill="none" stroke="#000" stroke-miterlimit="10" stroke-width="0.75"/><path d="M69.93,58.11s.11,1.61,2.4,1.75c1.42.08,2.06-1.75,2.06-1.75" fill="none" stroke="#000" stroke-miterlimit="10" stroke-width="0.75"/><path d="M48.65,50.44s2.66-3.91,4.67-5.28" fill="#202133" stroke="#000" stroke-miterlimit="10" stroke-width="0.75"/><g id="eyes_copy_3" data-name="eyes copy 3"><ellipse cx="72.16" cy="53.65" rx="1.21" ry="2.52" fill="#fff" stroke="#020202" stroke-miterlimit="10" stroke-width="0.75"/><ellipse cx="53.09" cy="53.73" rx="1.3" ry="2.35" transform="translate(-2.59 2.69) rotate(-2.84)" fill="#fff" stroke="#020202" stroke-miterlimit="10" stroke-width="0.75"/></g></g><g id="hat_2" data-name="hat 2"><path d="M40.43,33.7s.63-7.67,3.83-11,4.29-5.85,7.65-7.45A23.73,23.73,0,0,1,61,12.73c2.58-.08,8.4,1.48,12.81,3.33a15.8,15.8,0,0,1,8.74,8.54,52.51,52.51,0,0,1,2.63,8.89C85.5,35.35,40.82,36.11,40.43,33.7Z" fill="#286308" stroke="#020202" stroke-miterlimit="10" stroke-width="0.75"/><path d="M38.46,51.56a20.57,20.57,0,0,1-.6-2.34,4.44,4.44,0,0,1,.91-3.52,3.46,3.46,0,0,1,.57-.51c2.84-2.07,9.58-6.88,19.34-6.19s11.62-1.34,18.59,2,9.76,7.65,9.52,8.57,2-5.23,1.61-8.57S88.19,36,82.61,31.9a29.41,29.41,0,0,0-18.35-5.73c-6,.23-13.09-.29-16.89,2.15s-8.93,5.41-9.62,8.85a51.68,51.68,0,0,0-1.08,7.32,15.85,15.85,0,0,0,.22,4,6.65,6.65,0,0,0,.54,1.67,3.22,3.22,0,0,0,.92,1.31Z" fill="#286308" stroke="#020202" stroke-miterlimit="10" stroke-width="0.75"/></g><circle cx="64.97" cy="76.39" r="2.15" fill="#fff" stroke="#020202" stroke-miterlimit="10" stroke-width="0.75"/></g></svg>